<svg id="bold" enable-background="new 0 0 24 24" height="512" viewBox="0 0 24 24" width="512" xmlns="http://www.w3.org/2000/svg"><path d="m17.5 11c-3.584 0-6.5 2.916-6.5 6.5s2.916 6.5 6.5 6.5 6.5-2.916 6.5-6.5-2.916-6.5-6.5-6.5zm1 10c0 .552-.447 1-1 1s-1-.448-1-1v-3.5c0-.552.447-1 1-1s1 .448 1 1zm-1-6c-.552 0-1-.448-1-1s.448-1 1-1 1 .448 1 1-.448 1-1 1z"/><path d="m17 5.958v-3.958c0-.552-.447-1-1-1s-1 .448-1 1v2.002l-3.801-3.717c-.389-.38-1.01-.38-1.398 0l-9.354 9.144c-.284.281-.447.672-.447 1.071 0 .827.673 1.5 1.5 1.5h1.5v5.5c0 1.378 1.121 2.5 2.5 2.5h2.5c.553 0 1-.448 1-1s-.447-1-1-1h-2.5c-.275 0-.5-.224-.5-.5v-6.5c0-.552-.447-1-1-1h-1.275l7.775-7.602 6.551 6.406c.396.387 1.029.379 1.414-.016.387-.395.379-1.028-.016-1.414z"/></svg>