<svg xmlns="http://www.w3.org/2000/svg" width="172.139" height="192.203" viewBox="0 0 172.139 192.203"><defs><style>.a{fill:#269edc;}.b{fill:#0f85ca;}.c{fill:#137dc3;}.d{fill:#c4d1d5;}.e{fill:#e4e9ea;}.f,.h,.l,.m{fill:none;stroke-miterlimit:10;}.f{stroke:#f7f9fb;stroke-width:2px;}.g{fill:#313c3f;}.h{stroke:#1a1818;stroke-width:0.25px;}.i{fill:#506165;}.j{fill:#36ade5;}.k{fill:#edeef0;}.l{stroke:#9fb1b9;}.m{stroke:#c4d1d5;}.n{fill:#9fb1b9;}.o{fill:#e9eaea;}.p{fill:#eaeef0;}</style></defs><g transform="translate(-584.136 -199.5)"><g transform="translate(597.123 199.5)"><path class="a" d="M615.5,239.78l72.669-40.28,47.663,79.806-73.359,39.9Z" transform="translate(-576.679 -199.5)"/><path class="b" d="M592.083,262.167l38.821-36,46.972,79.428-1.52,1.133L630.9,230.446l-36.887,34.49-1.934-.629Z" transform="translate(-592.083 -185.886)"/><path class="c" d="M625.6,227.693V208.65l5.5-3.65h3.592l4.007,2.392v13.04Z" transform="translate(-570.036 -196.692)"/><path class="d" d="M599.129,254.377v63.491l64.995,31.973,1.023-55.6L626.27,229Z" transform="translate(-587.448 -184.44)"/><path class="e" d="M639.356,280.2l-1.023,55.6,70.873-35.371V256.512l-63.274,34.723Z" transform="translate(-561.658 -170.394)"/><line class="f" x2="12.365" y2="79.05" transform="translate(112.111 67.847)"/><line class="f" x2="12.71" y2="79.176" transform="translate(123.233 61.931)"/><line class="f" y1="6.357" x2="11.084" transform="translate(113.392 69.677)"/><line class="f" y1="6.76" x2="11.054" transform="translate(114.712 77.715)"/><line class="f" y1="6.642" x2="11.11" transform="translate(116.113 86.786)"/><line class="f" y1="6.879" x2="11.105" transform="translate(117.378 94.64)"/><line class="f" y1="5.999" x2="11.28" transform="translate(118.646 103.625)"/><line class="f" y1="5.986" x2="11.317" transform="translate(119.964 112.062)"/><line class="f" y1="5.648" x2="11.406" transform="translate(121.284 120.841)"/><path class="g" d="M9.879.192c5.456.106,10,5.649,10.138,12.38s-4.165,12.1-9.621,11.995S.4,18.918.258,12.187,4.423.086,9.879.192Z" transform="translate(27.885 99.288) rotate(-12.938)"/><path class="h" d="M614.338,264.009" transform="translate(-577.443 -166.567)"/><path class="i" d="M616.93,264.009s-9.219,3.639-5.753,14.62c0,0,2.427,9.595,12.376,8.841a6.387,6.387,0,0,0,4.159-2.3S608.374,283.47,616.93,264.009Z" transform="translate(-580.035 -166.567)"/><path class="j" d="M618.171,311.662l39.188,19.732s13.8,1.553,11.711-9.867c0,0-1.51-9.195-13.788-9.865,0,0,3.07-21.353-16.925-19.585a5.2,5.2,0,0,0-1.179.248c-1.883.63-7.536,2.885-10.095,7.962,0,0-5.781-.705-8.912,3.121C618.171,303.408,615.557,307.534,618.171,311.662Z" transform="translate(-575.686 -152.291)"/><path class="c" d="M618.391,312.24l36.749,18.5s12.939,1.456,10.983-9.252c0,0-1.417-8.622-12.931-9.252,0,0,2.88-20.023-15.872-18.366a4.814,4.814,0,0,0-1.106.233c-1.766.591-7.066,2.705-9.465,7.467,0,0-5.423-.662-8.359,2.926A7.6,7.6,0,0,0,618.391,312.24Z" transform="translate(-575.494 -151.37)"/></g><path class="g" d="M1.945.082,33.765,1.425a2.123,2.123,0,0,1,2.027,1.959l.108,2.47a1.725,1.725,0,0,1-1.863,1.8L2.217,6.306A2.123,2.123,0,0,1,.19,4.347L.082,1.877A1.725,1.725,0,0,1,1.945.082Z" transform="translate(672.251 256.181) rotate(-33.747)"/><path class="k" d="M644.588,246.605s-8.967-7.976-1.714-18.233c0,0,8.652-9.975,19.894-5.255,0,0,5.693,2.776,3.516,10.281l-19.307,11.753Z" transform="translate(36.588 11.409)"/><path class="d" d="M646.157,243.635s-6.6-4.874-1.832-13.607c0,0,8.75-12.057,18.679-2.648,0,0,2.3,2.643.859,5.477Z" transform="translate(38.269 12.4)"/><path class="e" d="M608.468,323.979l-19.15-9.335,9.549-6.274,19.894,9.881Z" transform="translate(3.22 55.58)"/><ellipse class="l" cx="3.834" cy="3.493" rx="3.834" ry="3.493" transform="translate(608.442 384.217)"/><line class="m" x2="11.985" y2="8.969" transform="translate(588.916 356.096)"/><line class="m" x2="9.256" y2="6.465" transform="translate(584.423 363.298)"/><path class="d" d="M595.077,308.371l.276,7.049,13.036,6.494,6.581-3.662Z" transform="translate(7.009 55.58)"/><path class="n" d="M598.96,308.371l.276,7.049-3.73,4.406-6.095-5.181Z" transform="translate(3.282 55.58)"/><path class="o" d="M589.318,312.524s.015,8.957,2.5,10.593l15.889,6.672.759-1.763v-6.167Z" transform="translate(3.22 57.7)"/><path class="p" d="M610.747,320.86l-9.878,5.948V320.64l10.292-5.727Z" transform="translate(10.819 58.92)"/></g></svg>